# xmcd
#
# Track frame offsets:
#	150
#	26019
#	48262
#	75020
#	105387
#	126672
#	147633
#	181887
#	203849
#	228893
#	250497
#	272193
#
# Disc length: 3888 seconds
# Revision: 1
# Processed by: cddbd v1.5.2PL0 Copyright (c) Steve Scherf et al.
# Submitted via: dBpowerAMP V12.0
#
DISCID=a30f2e0c
DTITLE=Various Artist - Duyen phan
DYEAR=2010
DGENRE=Blues
TTITLE0=Nhu Quynh - Duyen phan
TTITLE1=Nhu Quynh - Buon trong ky niem
TTITLE2=Nhu Quynh - Co lai do Ben Ha
TTITLE3=Nhu Quynh - Lien khuc The roi mot mua he and Ky niem nao buon
TTITLE4=Nhu Quynh and Truong Vu - Khong phai tai chung minh
TTITLE5=Nhu Quynh - Ngang trai
TTITLE6=Nhu Quynh - Lien khuc Nuoc cuon hoa troi and Tinh nang La Lan
TTITLE7=Nhu Quynh - Ta ao cuoi
TTITLE8=Nhu Quynh - Tu do em buon
TTITLE9=Nhu Quynh and Ly Duy Vu - Lien khuc Lam dau xu la and Nam 17 tuoi
TTITLE10=Nhu Quynh - Doan cuoi mot cuoc tinh
TTITLE11=Nhu Quynh - Mo anh trang ve
EXTD=
EXTT0=
EXTT1=
EXTT2=
EXTT3=
EXTT4=
EXTT5=
EXTT6=
EXTT7=
EXTT8=
EXTT9=
EXTT10=
EXTT11=
PLAYORDER=
